<?xml version="1.0" encoding="UTF-8"?>
<svg id="Camada_1" xmlns="http://www.w3.org/2000/svg" version="1.1" xmlns:xlink="http://www.w3.org/1999/xlink" viewBox="0 0 24 24">
  <!-- Generator: Adobe Illustrator 30.3.0, SVG Export Plug-In . SVG Version: 2.1.3 Build 182)  -->
  <defs>
    <style>
      .st0 {
        fill: none;
      }

      .st1 {
        clip-path: url(#clippath);
      }

      .st2 {
        fill: yellow;
        fill-rule: evenodd;
      }
    </style>
    <clipPath id="clippath">
      <rect class="st0" width="24" height="24"/>
    </clipPath>
  </defs>
  <g class="st1">
    <path class="st2" d="M9.5,1c-.44,0-.84.29-.96.72l-3.5,12c-.15.53.15,1.09.68,1.24.09.03.18.04.28.04h3.87l-.86,6.88c-.07.55.32,1.05.87,1.12.38.05.75-.12.96-.44l8-12c.31-.46.18-1.08-.28-1.39-.16-.11-.36-.17-.56-.17h-3.56l2.49-6.65c.19-.52-.07-1.09-.58-1.29-.11-.04-.23-.06-.35-.06h-6.5Z"/>
  </g>
</svg>