<?xml version="1.0" encoding="UTF-8"?>
<svg id="Camada_1" data-name="Camada 1" xmlns="http://www.w3.org/2000/svg" viewBox="0 0 86.05 75.4">
  <path d="M74.69.28c2.2,1.4,4.28,3.52,6.2,5.54l5.16,5.42-10.88,10.93v32c-3.13.08-4.99,2.23-5.1,4.9s2,4.82,5.29,5.24l-.1,11.09H10.76s.12-11.05.12-11.05c2.89-.06,5.03-2.36,5.24-4.75.25-2.85-1.81-5.52-5.24-5.51l-.07-31.96L0,11.05,11.16.09l11.09,11.09-10.71,10.66,18.69,18.66,12.37-18.47-10.7-10.79L43,0l11.19,11.15-10.61,10.73,12.32,18.61,18.77-18.76-10.77-10.56L74.69.28ZM42.06,54.24c-2.82.7-4.72,3.57-3.74,6.37.82,2.35,3.4,4.41,6.4,3.24,2.11-.83,4.22-3.4,3.27-6.07-.83-2.35-3.06-4.25-5.92-3.54Z"/>
</svg>